<mxfile host="app.diagrams.net" modified="2021-05-31T13:13:15.129Z" agent="5.0 (Windows NT 10.0; Win64; x64) AppleWebKit/537.36 (KHTML, like Gecko) Chrome/90.0.4430.212 Safari/537.36" etag="PgCaJEnMJnp08TG_epee" version="14.7.3" type="github">
  <diagram id="C5RBs43oDa-KdzZeNtuy" name="Page-1">
    <mxGraphModel dx="1038" dy="548" grid="1" gridSize="10" guides="1" tooltips="1" connect="1" arrows="1" fold="1" page="1" pageScale="1" pageWidth="827" pageHeight="1169" math="0" shadow="0">
      <root>
        <mxCell id="WIyWlLk6GJQsqaUBKTNV-0" />
        <mxCell id="WIyWlLk6GJQsqaUBKTNV-1" parent="WIyWlLk6GJQsqaUBKTNV-0" />
        <mxCell id="Z50OsVK6-pCqIzYdg9Bn-0" value="" style="edgeStyle=orthogonalEdgeStyle;rounded=0;orthogonalLoop=1;jettySize=auto;html=1;" edge="1" parent="WIyWlLk6GJQsqaUBKTNV-1" source="Z50OsVK6-pCqIzYdg9Bn-1" target="Z50OsVK6-pCqIzYdg9Bn-6">
          <mxGeometry relative="1" as="geometry" />
        </mxCell>
        <mxCell id="Z50OsVK6-pCqIzYdg9Bn-1" value="update Roles&lt;br&gt;(userid_1, userid_2, roles)" style="rounded=1;whiteSpace=wrap;html=1;labelBackgroundColor=#FFE6CC;fillColor=#ffe6cc;strokeColor=#d79b00;" vertex="1" parent="WIyWlLk6GJQsqaUBKTNV-1">
          <mxGeometry x="75" y="40" width="120" height="60" as="geometry" />
        </mxCell>
        <mxCell id="Z50OsVK6-pCqIzYdg9Bn-11" style="edgeStyle=orthogonalEdgeStyle;rounded=0;orthogonalLoop=1;jettySize=auto;html=1;exitX=0.5;exitY=1;exitDx=0;exitDy=0;exitPerimeter=0;entryX=0.5;entryY=0;entryDx=0;entryDy=0;entryPerimeter=0;" edge="1" parent="WIyWlLk6GJQsqaUBKTNV-1" source="Z50OsVK6-pCqIzYdg9Bn-3" target="Z50OsVK6-pCqIzYdg9Bn-10">
          <mxGeometry relative="1" as="geometry" />
        </mxCell>
        <mxCell id="Z50OsVK6-pCqIzYdg9Bn-3" value="Uid2 - Org1 combination valid?" style="strokeWidth=2;html=1;shape=mxgraph.flowchart.decision;whiteSpace=wrap;" vertex="1" parent="WIyWlLk6GJQsqaUBKTNV-1">
          <mxGeometry x="70" y="210" width="130" height="100" as="geometry" />
        </mxCell>
        <mxCell id="Z50OsVK6-pCqIzYdg9Bn-5" value="findByCampaignID&lt;br&gt;(campaign_id)" style="rounded=0;whiteSpace=wrap;html=1;labelBackgroundColor=none;fillColor=#dae8fc;strokeColor=#6c8ebf;" vertex="1" parent="WIyWlLk6GJQsqaUBKTNV-1">
          <mxGeometry x="170" y="650" width="155" height="70" as="geometry" />
        </mxCell>
        <mxCell id="Z50OsVK6-pCqIzYdg9Bn-8" style="edgeStyle=orthogonalEdgeStyle;rounded=0;orthogonalLoop=1;jettySize=auto;html=1;exitX=0.5;exitY=1;exitDx=0;exitDy=0;entryX=0.5;entryY=0;entryDx=0;entryDy=0;entryPerimeter=0;" edge="1" parent="WIyWlLk6GJQsqaUBKTNV-1" source="Z50OsVK6-pCqIzYdg9Bn-6" target="Z50OsVK6-pCqIzYdg9Bn-3">
          <mxGeometry relative="1" as="geometry" />
        </mxCell>
        <mxCell id="Z50OsVK6-pCqIzYdg9Bn-6" value="user (Uid1) checked as admin, org (Org1) subscription checked in the auth" style="rounded=1;whiteSpace=wrap;html=1;" vertex="1" parent="WIyWlLk6GJQsqaUBKTNV-1">
          <mxGeometry x="35" y="120" width="200" height="60" as="geometry" />
        </mxCell>
        <mxCell id="Z50OsVK6-pCqIzYdg9Bn-9" value="1. Update role for Uid2&lt;br&gt;2. Invalidate existing token for Uid2" style="rounded=1;whiteSpace=wrap;html=1;" vertex="1" parent="WIyWlLk6GJQsqaUBKTNV-1">
          <mxGeometry x="35" y="470" width="200" height="60" as="geometry" />
        </mxCell>
        <mxCell id="Z50OsVK6-pCqIzYdg9Bn-12" style="edgeStyle=orthogonalEdgeStyle;rounded=0;orthogonalLoop=1;jettySize=auto;html=1;exitX=0.5;exitY=1;exitDx=0;exitDy=0;exitPerimeter=0;" edge="1" parent="WIyWlLk6GJQsqaUBKTNV-1" source="Z50OsVK6-pCqIzYdg9Bn-10" target="Z50OsVK6-pCqIzYdg9Bn-9">
          <mxGeometry relative="1" as="geometry" />
        </mxCell>
        <mxCell id="Z50OsVK6-pCqIzYdg9Bn-10" value="roles valid for Org1&amp;nbsp;subscription&lt;br&gt;?" style="strokeWidth=2;html=1;shape=mxgraph.flowchart.decision;whiteSpace=wrap;" vertex="1" parent="WIyWlLk6GJQsqaUBKTNV-1">
          <mxGeometry x="70" y="340" width="130" height="100" as="geometry" />
        </mxCell>
      </root>
    </mxGraphModel>
  </diagram>
</mxfile>
